<?xml version="1.0" standalone="no"?>
<!DOCTYPE svg PUBLIC "-//W3C//DTD SVG 20010904//EN"
 "http://www.w3.org/TR/2001/REC-SVG-20010904/DTD/svg10.dtd">
<svg version="1.0" xmlns="http://www.w3.org/2000/svg"
 width="512.000000pt" height="512.000000pt" viewBox="0 0 512.000000 512.000000"
 preserveAspectRatio="xMidYMid meet">

<g transform="translate(0.000000,512.000000) scale(0.100000,-0.100000)"
fill="#000000" stroke="none">
<path d="M1730 4870 c-240 -25 -461 -108 -642 -242 -74 -55 -95 -86 -69 -103
5 -3 -3 -33 -19 -68 -45 -101 -71 -194 -203 -737 -69 -283 -135 -533 -146
-555 -58 -119 -56 -111 -38 -139 22 -32 40 -33 159 -1 207 54 258 60 518 60
335 -1 378 -11 863 -200 92 -36 178 -65 191 -65 30 0 57 31 66 77 47 232 66
313 104 444 65 223 165 510 271 779 51 129 95 256 99 282 5 44 3 51 -27 85
-39 45 -166 140 -261 195 -242 141 -586 216 -866 188z"/>
<path d="M3195 4280 c-3 -5 -16 -10 -29 -10 -49 0 -46 7 -196 -505 -127 -438
-176 -637 -225 -914 -13 -75 -27 -148 -31 -163 -18 -78 222 -260 439 -333 342
-114 815 -112 1186 7 115 36 175 65 259 125 41 29 62 51 62 64 0 12 24 60 54
108 204 329 340 765 376 1202 6 74 16 148 22 166 14 40 -1 78 -37 95 -22 10
-40 4 -153 -50 -234 -112 -417 -154 -662 -155 -336 0 -645 103 -923 308 -83
62 -127 79 -142 55z"/>
<path d="M1375 2794 c-278 -38 -432 -74 -685 -157 -229 -75 -270 -94 -270
-122 0 -13 5 -25 10 -27 6 -2 -9 -38 -34 -81 -55 -97 -111 -266 -170 -512
-123 -510 -151 -619 -189 -737 -43 -136 -43 -146 2 -200 22 -27 49 -22 152 26
267 125 599 198 819 181 279 -22 464 -103 656 -287 48 -46 90 -78 102 -78 11
0 32 -4 45 -9 17 -7 30 -6 40 2 9 7 48 82 88 167 237 512 358 921 394 1323 5
65 5 69 -23 95 -16 15 -44 56 -63 92 -46 88 -145 185 -237 233 -122 64 -238
89 -437 92 -93 2 -183 1 -200 -1z"/>
<path d="M2606 2228 c-9 -12 -16 -31 -16 -41 0 -11 -20 -50 -45 -87 -56 -84
-92 -168 -145 -340 -23 -74 -75 -242 -116 -372 -86 -274 -121 -416 -129 -537
-4 -47 -12 -97 -18 -109 -21 -44 70 -188 176 -280 181 -157 538 -243 882 -213
281 25 501 81 710 181 108 52 145 80 145 110 0 10 4 22 10 25 14 9 45 118 76
265 21 101 44 167 119 346 99 236 137 343 154 439 33 194 41 245 41 277 0 22
7 41 20 53 26 23 27 86 3 107 -38 33 -58 30 -170 -20 -221 -101 -426 -140
-672 -129 -302 15 -624 120 -887 292 -46 30 -93 55 -104 55 -10 0 -26 -10 -34
-22z"/>
</g>
</svg>
